<?xml version="1.0" encoding="UTF-8" standalone="no"?>
<!-- Created with Inkscape (http://www.inkscape.org/) -->

<svg
   xmlns:dc="http://purl.org/dc/elements/1.1/"
   xmlns:cc="http://creativecommons.org/ns#"
   xmlns:rdf="http://www.w3.org/1999/02/22-rdf-syntax-ns#"
   xmlns:svg="http://www.w3.org/2000/svg"
   xmlns="http://www.w3.org/2000/svg"
   xmlns:sodipodi="http://sodipodi.sourceforge.net/DTD/sodipodi-0.dtd"
   xmlns:inkscape="http://www.inkscape.org/namespaces/inkscape"
   width="744.09448819"
   height="1052.3622047"
   id="svg2"
   version="1.1"
   inkscape:version="0.48.4 r9939"
   sodipodi:docname="New document 1.2016_02_05_10_07_10.0.svg">
  <defs
     id="defs4" />
  <sodipodi:namedview
     id="base"
     pagecolor="#ffffff"
     bordercolor="#666666"
     borderopacity="1.0"
     inkscape:pageopacity="0.0"
     inkscape:pageshadow="2"
     inkscape:zoom="1"
     inkscape:cx="504.56239"
     inkscape:cy="670.16206"
     inkscape:document-units="px"
     inkscape:current-layer="layer1"
     showgrid="false"
     showguides="true"
     inkscape:guide-bbox="true"
     inkscape:window-width="1163"
     inkscape:window-height="845"
     inkscape:window-x="1345"
     inkscape:window-y="24"
     inkscape:window-maximized="0">
    <sodipodi:guide
       orientation="1,0"
       position="700,349.39063"
       id="guide3830" />
    <sodipodi:guide
       orientation="1,0"
       position="200,605.875"
       id="guide3834" />
    <sodipodi:guide
       orientation="1,0"
       position="300,537"
       id="guide3836" />
    <sodipodi:guide
       orientation="1,0"
       position="400,648.375"
       id="guide3838" />
    <sodipodi:guide
       orientation="1,0"
       position="500,654.0625"
       id="guide3840" />
    <sodipodi:guide
       orientation="1,0"
       position="600,685.25"
       id="guide3842" />
    <sodipodi:guide
       orientation="0,1"
       position="17.142857,675.35714"
       id="guide3059" />
    <sodipodi:guide
       orientation="0,1"
       position="13.080357,602.58929"
       id="guide3061" />
    <sodipodi:guide
       orientation="0,1"
       position="23.738585,638.41641"
       id="guide3063" />
    <sodipodi:guide
       orientation="1,0"
       position="49.851028,638.41641"
       id="guide3090" />
    <sodipodi:guide
       orientation="1,0"
       position="150.26019,617.65777"
       id="guide3092" />
    <sodipodi:guide
       orientation="1,0"
       position="250.3158,675.35714"
       id="guide3094" />
    <sodipodi:guide
       orientation="1,0"
       position="350.19463,646.64915"
       id="guide3138" />
    <sodipodi:guide
       orientation="1,0"
       position="450.07346,647.0027"
       id="guide3140" />
    <sodipodi:guide
       orientation="1,0"
       position="550.5,629"
       id="guide3184" />
    <sodipodi:guide
       orientation="1,0"
       position="650.18468,618.71843"
       id="guide3207" />
  </sodipodi:namedview>
  <metadata
     id="metadata7">
    <rdf:RDF>
      <cc:Work
         rdf:about="">
        <dc:format>image/svg+xml</dc:format>
        <dc:type
           rdf:resource="http://purl.org/dc/dcmitype/StillImage" />
        <dc:title></dc:title>
      </cc:Work>
    </rdf:RDF>
  </metadata>
  <g
     inkscape:label="Layer 1"
     inkscape:groupmode="layer"
     id="layer1">
    <path
       inkscape:connector-curvature="0"
       id="rect3828"
       d="m 33.174634,375.00345 632.832176,0 c 17.72534,0 31.9952,14.26986 31.9952,31.99519 l 0,12.79808 c 0,17.72534 -14.26986,31.9952 -31.9952,31.9952 l -632.832176,0 c -17.725338,0 -31.9951949,-14.26986 -31.9951949,-31.9952 l 0,-12.79808 c 0,-17.72533 14.2698569,-31.99519 31.9951949,-31.99519 z"
       style="fill:#e77200;fill-opacity:1;stroke:#000000;stroke-width:4.02416849" />
    <path
       style="fill:none;stroke:#000000;stroke-width:1px;stroke-linecap:butt;stroke-linejoin:miter;stroke-opacity:1"
       d="m 100.01142,451.79968 0,-76.75"
       id="path3935"
       inkscape:connector-type="polyline"
       inkscape:connector-curvature="0" />
    <path
       style="fill:none;stroke:#000000;stroke-width:1px;stroke-linecap:butt;stroke-linejoin:miter;stroke-opacity:1"
       d="m 300,376.01455 0,75.0417"
       id="path3937"
       inkscape:connector-type="polyline"
       inkscape:connector-curvature="0" />
    <path
       style="fill:none;stroke:#000000;stroke-width:1px;stroke-linecap:butt;stroke-linejoin:miter;stroke-opacity:1"
       d="m 200,374.95389 0,76.45592"
       id="path3939"
       inkscape:connector-type="polyline"
       inkscape:connector-curvature="0" />
    <path
       style="fill:none;stroke:#000000;stroke-width:1px;stroke-linecap:butt;stroke-linejoin:miter;stroke-opacity:1"
       d="m 400,373.89323 0,76.89786"
       id="path3941"
       inkscape:connector-type="polyline"
       inkscape:connector-curvature="0" />
    <path
       style="fill:none;stroke:#000000;stroke-width:1px;stroke-linecap:butt;stroke-linejoin:miter;stroke-opacity:1"
       d="m 500,374.60033 0,77.95853"
       id="path3943"
       inkscape:connector-type="polyline"
       inkscape:connector-curvature="0" />
    <path
       style="fill:none;stroke:#000000;stroke-width:1px;stroke-linecap:butt;stroke-linejoin:miter;stroke-opacity:1"
       d="m 600,374.77711 0,76.01398"
       id="path3945"
       inkscape:connector-type="polyline"
       inkscape:connector-curvature="0" />
    <g
       id="text3065"
       style="font-size:40px;font-style:normal;font-variant:normal;font-weight:normal;font-stretch:normal;line-height:125%;letter-spacing:0px;word-spacing:0px;fill:#000000;fill-opacity:1;stroke:none;font-family:Roboto;-inkscape-font-specification:Roboto">
      <path
         inkscape:connector-curvature="0"
         id="path4011"
         d="m 17.181196,399.17441 9.0625,23.10547 0.117188,0 9.0625,-23.10547 4.921875,0 0,28.4375 -3.847657,0 0,-11.25 0.390625,-11.5625 -0.09766,-0.0195 -9.21875,22.83203 -2.558594,0 -9.179687,-22.77344 -0.09766,0.0195 0.371093,11.50391 0,11.25 -3.847656,0 0,-28.4375 4.921875,0" />
      <path
         inkscape:connector-curvature="0"
         id="path4013"
         d="m 45.794477,416.85019 c -10e-7,-3.12499 0.846352,-5.6966 2.539063,-7.71484 1.692702,-2.03123 3.990877,-3.04686 6.894531,-3.04688 2.929673,2e-5 5.240869,1.00914 6.933594,3.02734 1.705709,2.01825 2.558573,4.59637 2.558594,7.73438 l 0,0.42969 c -2.1e-5,3.15105 -0.846374,5.72917 -2.539063,7.73437 -1.692725,2.00521 -3.99741,3.00781 -6.914062,3.00781 -2.916675,0 -5.227871,-1.0026 -6.933594,-3.00781 -1.692711,-2.01822 -2.539064,-4.59635 -2.539063,-7.73437 l 0,-0.42969 m 3.847657,0.42969 c -6e-6,2.23959 0.468744,4.08854 1.40625,5.54687 0.950512,1.45834 2.356761,2.1875 4.21875,2.1875 1.835924,0 3.229152,-0.72916 4.179687,-2.1875 0.950505,-1.45833 1.425764,-3.30728 1.425781,-5.54687 l 0,-0.42969 c -1.7e-5,-2.21353 -0.481787,-4.05598 -1.445312,-5.52734 -0.950535,-1.47134 -2.350274,-2.20702 -4.199219,-2.20704 -1.835947,2e-5 -3.229175,0.7357 -4.179687,2.20704 -0.937506,1.47136 -1.406256,3.31381 -1.40625,5.52734 l 0,0.42969" />
      <path
         inkscape:connector-curvature="0"
         id="path4015"
         d="m 72.86479,406.4791 0.273437,3.14453 c 0.703118,-1.11978 1.582024,-1.98566 2.636719,-2.59766 1.067698,-0.62498 2.278635,-0.93748 3.632813,-0.9375 2.27863,2e-5 4.042952,0.67059 5.292968,2.01172 1.249981,1.32814 1.874981,3.38543 1.875,6.17187 l 0,13.33985 -3.847656,0 0,-13.26172 c -1.6e-5,-1.86196 -0.371109,-3.18358 -1.113281,-3.96484 -0.729181,-0.78124 -1.848972,-1.17186 -3.359375,-1.17188 -1.106781,2e-5 -2.089853,0.26695 -2.949219,0.80078 -0.846362,0.53387 -1.523444,1.26304 -2.03125,2.1875 l 0,15.41016 -3.847656,0 0,-21.13281 3.4375,0" />
    </g>
    <g
       style="font-size:40px;font-style:normal;font-variant:normal;font-weight:normal;font-stretch:normal;line-height:125%;letter-spacing:0px;word-spacing:0px;fill:#000000;fill-opacity:1;stroke:none;font-family:Roboto;-inkscape-font-specification:Roboto"
       id="text3065-3">
      <path
         inkscape:connector-curvature="0"
         d="m 140.39777,402.60269 -9.14062,0 0,25.41016 -3.84766,0 0,-25.41016 -9.12109,0 0,-3.02734 22.10937,0 0,3.02734"
         id="path3978" />
      <path
         inkscape:connector-curvature="0"
         d="m 156.02277,424.88785 c -0.66407,1.13281 -1.51694,2.00521 -2.55859,2.61719 -1.04168,0.61197 -2.24611,0.91796 -3.61328,0.91796 -2.3047,0 -4.10157,-0.73567 -5.39063,-2.20703 -1.28906,-1.47135 -1.93359,-3.76301 -1.93359,-6.875 l 0,-12.46093 3.84766,0 0,12.5 c -1e-5,2.25261 0.33202,3.80208 0.99609,4.64843 0.66405,0.84636 1.69921,1.26954 3.10547,1.26953 1.36717,10e-6 2.49348,-0.27343 3.3789,-0.82031 0.89843,-0.55989 1.57551,-1.34765 2.03125,-2.36328 l 0,-15.23437 3.84766,0 0,21.13281 -3.45703,0 -0.25391,-3.125"
         id="path3980" />
      <path
         inkscape:connector-curvature="0"
         d="m 174.10871,428.423 c -2.94272,0 -5.28646,-0.97656 -7.03125,-2.92968 -1.73177,-1.96614 -2.59766,-4.51172 -2.59766,-7.63672 l 0,-0.85938 c 0,-3.0078 0.89193,-5.50779 2.67579,-7.5 1.79686,-2.00518 3.91926,-3.00779 6.36718,-3.00781 2.85155,2e-5 5.0065,0.8594 6.46485,2.57813 1.45831,1.71876 2.18748,4.01043 2.1875,6.875 l 0,2.40234 -13.71094,0 -0.0586,0.0977 c 0.0391,2.03125 0.55338,3.70443 1.54296,5.01953 0.98958,1.30208 2.3763,1.95312 4.16016,1.95312 1.30207,0 2.44139,-0.18229 3.41797,-0.54687 0.98957,-0.3776 1.84243,-0.89193 2.55859,-1.54297 l 1.50391,2.5 c -0.75523,0.74219 -1.75132,1.36068 -2.98828,1.85547 -1.237,0.49479 -2.73439,0.74218 -4.49219,0.74218 m -0.58594,-18.90625 c -1.28907,2e-5 -2.38933,0.5469 -3.30078,1.64063 -0.91146,1.08074 -1.47136,2.44142 -1.67969,4.08203 l 0.0391,0.0977 9.74609,0 0,-0.50782 c -1e-5,-1.5104 -0.40366,-2.77342 -1.21094,-3.78906 -0.8073,-1.01561 -2.00522,-1.52342 -3.59375,-1.52344"
         id="path3982" />
    </g>
    <g
       id="text3065-3-8"
       style="font-size:40px;font-style:normal;font-variant:normal;font-weight:normal;font-stretch:normal;line-height:125%;letter-spacing:0px;word-spacing:0px;fill:#000000;fill-opacity:1;stroke:none;font-family:Roboto;-inkscape-font-specification:Roboto">
      <path
         inkscape:connector-curvature="0"
         id="path4018"
         d="m 221.17528,419.12009 0.52734,3.55468 0.11719,0.0195 0.76172,-3.57422 5.21484,-18.59375 3.39844,0 5.25391,18.59375 0.78125,3.65234 0.11718,0 0.56641,-3.65234 4.23828,-18.59375 3.84766,0 -6.85547,28.4375 -3.4375,0 -5.60547,-19.72657 -0.50781,-2.55859 -0.11719,0 -0.48828,2.55859 -5.70313,19.72657 -3.4375,0 -6.83593,-28.4375 3.82812,0 4.33594,18.59375" />
      <path
         inkscape:connector-curvature="0"
         id="path4020"
         d="m 258.20653,429.37399 c -2.94272,0 -5.28647,-0.97656 -7.03125,-2.92968 -1.73178,-1.96615 -2.59766,-4.51172 -2.59766,-7.63672 l 0,-0.85938 c 0,-3.0078 0.89193,-5.50779 2.67578,-7.5 1.79687,-2.00519 3.91927,-3.00779 6.36719,-3.00781 2.85155,2e-5 5.00649,0.85939 6.46484,2.57812 1.45832,1.71877 2.18748,4.01044 2.1875,6.875 l 0,2.40235 -13.71093,0 -0.0586,0.0977 c 0.0391,2.03126 0.55338,3.70444 1.54297,5.01954 0.98958,1.30208 2.37629,1.95312 4.16016,1.95312 1.30207,0 2.44139,-0.18229 3.41797,-0.54687 0.98956,-0.37761 1.84243,-0.89193 2.55859,-1.54297 l 1.50391,2.5 c -0.75523,0.74219 -1.75132,1.36067 -2.98828,1.85547 -1.237,0.49479 -2.73439,0.74218 -4.49219,0.74218 m -0.58594,-18.90625 c -1.28907,2e-5 -2.38933,0.5469 -3.30078,1.64063 -0.91147,1.08074 -1.47136,2.44142 -1.67969,4.08203 l 0.0391,0.0977 9.7461,0 0,-0.50782 c -2e-5,-1.5104 -0.40366,-2.77342 -1.21094,-3.78906 -0.80731,-1.01561 -2.00522,-1.52342 -3.59375,-1.52344" />
      <path
         inkscape:connector-curvature="0"
         id="path4022"
         d="m 269.72997,418.78806 c -10e-6,-3.39843 0.72265,-6.13931 2.16796,-8.22266 1.45833,-2.08331 3.49609,-3.12498 6.11329,-3.125 1.23696,2e-5 2.33071,0.22789 3.28125,0.68359 0.96352,0.45575 1.78383,1.11981 2.46093,1.99219 l 0,-11.62109 3.84766,0 0,30.46875 -3.14453,0 -0.44922,-2.59766 c -0.69012,0.98959 -1.53647,1.73828 -2.53906,2.24609 -1.00262,0.50782 -2.16798,0.76172 -3.4961,0.76172 -2.57813,0 -4.59636,-0.93099 -6.05468,-2.79297 -1.45834,-1.87499 -2.18751,-4.33593 -2.1875,-7.38281 l 0,-0.41015 m 3.84765,0.41015 c 0,2.13543 0.43619,3.84766 1.3086,5.13672 0.87238,1.27605 2.22655,1.91407 4.0625,1.91406 1.14582,1e-5 2.10936,-0.26041 2.89062,-0.78125 0.78124,-0.52083 1.41926,-1.24999 1.91406,-2.1875 l 0,-9.86328 c -0.4948,-0.87238 -1.13934,-1.56248 -1.93359,-2.07031 -0.78126,-0.52082 -1.72527,-0.78123 -2.83203,-0.78125 -1.84897,2e-5 -3.21616,0.76174 -4.10156,2.28516 -0.87241,1.52345 -1.3086,3.50261 -1.3086,5.9375 l 0,0.41015" />
    </g>
    <g
       id="text3065-3-8-8"
       style="font-size:40px;font-style:normal;font-variant:normal;font-weight:normal;font-stretch:normal;line-height:125%;letter-spacing:0px;word-spacing:0px;fill:#000000;fill-opacity:1;stroke:none;font-family:Roboto;-inkscape-font-specification:Roboto">
      <path
         inkscape:connector-curvature="0"
         id="path4025"
         d="m 331.58203,403.5889 -9.14062,0 0,25.41015 -3.84766,0 0,-25.41015 -9.12109,0 0,-3.02735 22.10937,0 0,3.02735" />
      <path
         inkscape:connector-curvature="0"
         id="path4027"
         d="m 338.88672,410.69827 c 0.72916,-1.0156 1.62108,-1.80336 2.67578,-2.36328 1.0677,-0.57289 2.24608,-0.85935 3.53516,-0.85937 2.25259,2e-5 4.00389,0.6771 5.2539,2.03125 1.263,1.35418 1.89451,3.43751 1.89453,6.25 l 0,13.24218 -3.84765,0 0,-13.28125 c -2e-5,-1.74477 -0.37762,-3.03383 -1.13282,-3.86718 -0.7422,-0.83332 -1.85548,-1.24999 -3.33984,-1.25 -1.06772,1e-5 -2.03777,0.25392 -2.91016,0.76172 -0.85938,0.4948 -1.56901,1.17189 -2.1289,2.03125 l 0,15.60546 -3.84766,0 0,-30.46875 3.84766,0 0,12.16797" />
      <path
         inkscape:connector-curvature="0"
         id="path4029"
         d="m 371.19141,425.87405 c -0.66408,1.13282 -1.51695,2.00521 -2.5586,2.61719 -1.04168,0.61198 -2.2461,0.91797 -3.61328,0.91797 -2.30469,0 -4.10157,-0.73568 -5.39062,-2.20703 -1.28907,-1.47135 -1.9336,-3.76302 -1.9336,-6.875 l 0,-12.46094 3.84766,0 0,12.5 c -1e-5,2.25261 0.33202,3.80209 0.99609,4.64844 0.66406,0.84636 1.69921,1.26953 3.10547,1.26953 1.36718,0 2.49348,-0.27343 3.37891,-0.82031 0.89842,-0.55989 1.5755,-1.34765 2.03125,-2.36328 l 0,-15.23438 3.84765,0 0,21.13281 -3.45703,0 -0.2539,-3.125" />
      <path
         inkscape:connector-curvature="0"
         id="path4031"
         d="m 390.50781,411.26468 -1.97265,-0.11719 c -1.01564,2e-5 -1.87501,0.2409 -2.57813,0.72266 -0.69011,0.48179 -1.22396,1.15887 -1.60156,2.03125 l 0,15.09765 -3.84766,0 0,-21.13281 3.4375,0 0.3711,3.08594 c 0.59895,-1.09373 1.33462,-1.9466 2.20703,-2.55859 0.8854,-0.61196 1.90103,-0.91795 3.04687,-0.91797 0.28645,2e-5 0.55989,0.0261 0.82031,0.0781 0.26041,0.0391 0.47525,0.0847 0.64454,0.13672 l -0.52735,3.57422" />
    </g>
    <g
       id="text3065-3-8-8-3"
       style="font-size:40px;font-style:normal;font-variant:normal;font-weight:normal;font-stretch:normal;line-height:125%;letter-spacing:0px;word-spacing:0px;fill:#000000;fill-opacity:1;stroke:none;font-family:Roboto;-inkscape-font-specification:Roboto">
      <path
         inkscape:connector-curvature="0"
         id="path4034"
         d="m 446.89771,416.57721 -12.96875,0 0,12.57812 -3.84766,0 0,-28.4375 18.80859,0 0,3.02735 -14.96093,0 0,9.80469 12.96875,0 0,3.02734" />
      <path
         inkscape:connector-curvature="0"
         id="path4036"
         d="m 462.17114,411.42096 -1.97265,-0.11719 c -1.01564,2e-5 -1.87501,0.2409 -2.57813,0.72266 -0.69011,0.48179 -1.22396,1.15887 -1.60156,2.03125 l 0,15.09765 -3.84766,0 0,-21.13281 3.4375,0 0.3711,3.08594 c 0.59895,-1.09373 1.33462,-1.9466 2.20703,-2.55859 0.8854,-0.61196 1.90103,-0.91795 3.04687,-0.91797 0.28645,2e-5 0.55989,0.0261 0.82032,0.0781 0.2604,0.0391 0.47524,0.0847 0.64453,0.13672 l -0.52735,3.57422" />
      <path
         inkscape:connector-curvature="0"
         id="path4038"
         d="m 470.0813,429.15533 -3.84766,0 0,-21.13281 3.84766,0 0,21.13281 m 0,-26.54296 -3.84766,0 0,-3.92579 3.84766,0 0,3.92579" />
    </g>
    <g
       id="text3065-3-8-8-3-3"
       style="font-size:40px;font-style:normal;font-variant:normal;font-weight:normal;font-stretch:normal;line-height:125%;letter-spacing:0px;word-spacing:0px;fill:#000000;fill-opacity:1;stroke:none;font-family:Roboto;-inkscape-font-specification:Roboto">
      <path
         inkscape:connector-curvature="0"
         id="path4041"
         d="m 539.03058,421.00751 c -2e-5,-1.30208 -0.4883,-2.38932 -1.46485,-3.26172 -0.97657,-0.88541 -2.70834,-1.62759 -5.19531,-2.22656 -3.00782,-0.71614 -5.35808,-1.77082 -7.05078,-3.16407 -1.67969,-1.39321 -2.51953,-3.14451 -2.51953,-5.2539 0,-2.21352 0.90494,-4.06248 2.71484,-5.54688 1.82291,-1.48434 4.17968,-2.22653 7.07032,-2.22656 3.11196,3e-5 5.58592,0.85289 7.42187,2.55859 1.84894,1.70576 2.74086,3.68492 2.67578,5.9375 l -0.0391,0.11719 -3.67188,0 c -10e-6,-1.66664 -0.5534,-3.0143 -1.66015,-4.04297 -1.09377,-1.02862 -2.66929,-1.54294 -4.72656,-1.54297 -1.91408,3e-5 -3.38543,0.43623 -4.41407,1.3086 -1.01563,0.8594 -1.52344,1.9857 -1.52343,3.3789 -10e-6,1.237 0.55337,2.27216 1.66015,3.10547 1.10676,0.82033 2.90364,1.54299 5.39063,2.16797 2.99477,0.7422 5.27342,1.83595 6.83593,3.28125 1.56248,1.44532 2.34373,3.23569 2.34375,5.37109 -2e-5,2.29168 -0.93752,4.13412 -2.8125,5.52735 -1.87501,1.39323 -4.32293,2.08984 -7.34375,2.08984 -2.83855,0 -5.35156,-0.76823 -7.53906,-2.30469 -2.17448,-1.53645 -3.22917,-3.59374 -3.16406,-6.17187 l 0.0391,-0.11719 3.67188,0 c -10e-6,1.82293 0.67056,3.20964 2.01172,4.16016 1.34113,0.95052 3.00129,1.42578 4.98046,1.42578 1.94009,0 3.47655,-0.41015 4.60938,-1.23047 1.13279,-0.82031 1.6992,-1.93359 1.69922,-3.33984" />
      <path
         inkscape:connector-curvature="0"
         id="path4043"
         d="m 560.7298,428.17548 c -0.13023,-0.63802 -0.23439,-1.19792 -0.3125,-1.67969 -0.0651,-0.49479 -0.10418,-0.98958 -0.11719,-1.48438 -0.71616,1.01563 -1.65366,1.86849 -2.8125,2.5586 -1.14584,0.67708 -2.38282,1.01562 -3.71094,1.01562 -2.20053,0 -3.88021,-0.55989 -5.03906,-1.67969 -1.14584,-1.13281 -1.71875,-2.68879 -1.71875,-4.66796 0,-2.01823 0.8138,-3.59374 2.44141,-4.72657 1.64061,-1.14582 3.86066,-1.71873 6.66015,-1.71875 l 4.17969,0 0,-2.08984 c -2e-5,-1.23696 -0.37762,-2.21353 -1.13281,-2.92969 -0.75522,-0.72915 -1.82293,-1.09373 -3.20313,-1.09375 -1.23699,2e-5 -2.2461,0.31903 -3.02734,0.95703 -0.76824,0.62502 -1.15235,1.38023 -1.15235,2.26563 l -3.67187,0 -0.0391,-0.11719 c -0.0781,-1.53644 0.64452,-2.94269 2.16797,-4.21875 1.53645,-1.27602 3.51561,-1.91404 5.9375,-1.91406 2.39582,2e-5 4.3229,0.612 5.78125,1.83594 1.45831,1.21095 2.18748,2.96225 2.1875,5.2539 l 0,10.17578 c -2e-5,0.75522 0.039,1.48438 0.11718,2.1875 0.0781,0.70313 0.22134,1.39323 0.42969,2.07032 l -3.96484,0 m -6.38672,-2.8125 c 1.39322,0 2.64973,-0.35807 3.76953,-1.07422 1.11978,-0.71614 1.84894,-1.53646 2.1875,-2.46094 l 0,-3.4375 -4.31641,0 c -1.54949,1e-5 -2.79297,0.39063 -3.73047,1.17187 -0.92448,0.78126 -1.38672,1.69923 -1.38671,2.75391 -10e-6,0.93751 0.29296,1.67969 0.8789,2.22656 0.58593,0.54688 1.45182,0.82032 2.59766,0.82032" />
      <path
         inkscape:connector-curvature="0"
         id="path4045"
         d="m 574.85089,401.94501 0,5.09765 4.00391,0 0,2.85157 -4.00391,0 0,12.83203 c -1e-5,0.98959 0.20182,1.6862 0.60547,2.08984 0.41666,0.40365 0.96353,0.60547 1.64062,0.60547 0.22135,0 0.46223,-0.026 0.72266,-0.0781 0.27343,-0.0521 0.51431,-0.11718 0.72266,-0.19531 l 0.50781,2.63672 c -0.28647,0.23438 -0.70965,0.42318 -1.26953,0.56641 -0.54689,0.15625 -1.10027,0.23437 -1.66016,0.23437 -1.56251,0 -2.80599,-0.46875 -3.73047,-1.40625 -0.92448,-0.95052 -1.38672,-2.43489 -1.38672,-4.45312 l 0,-12.83203 -3.35937,0 0,-2.85157 3.35937,0 0,-5.09765 3.84766,0" />
    </g>
    <g
       id="text3065-3-8-8-3-3-5"
       style="font-size:40px;font-style:normal;font-variant:normal;font-weight:normal;font-stretch:normal;line-height:125%;letter-spacing:0px;word-spacing:0px;fill:#000000;fill-opacity:1;stroke:none;font-family:Roboto;-inkscape-font-specification:Roboto">
      <path
         inkscape:connector-curvature="0"
         id="path4048"
         d="m 634.34149,420.99014 c -2e-5,-1.30207 -0.4883,-2.38931 -1.46484,-3.26172 -0.97658,-0.8854 -2.70835,-1.62759 -5.19531,-2.22656 -3.00783,-0.71613 -5.35808,-1.77082 -7.05079,-3.16406 -1.67969,-1.39321 -2.51953,-3.14451 -2.51953,-5.25391 0,-2.21352 0.90495,-4.06247 2.71485,-5.54687 1.82291,-1.48435 4.17967,-2.22654 7.07031,-2.22656 3.11196,2e-5 5.58592,0.85289 7.42187,2.55859 1.84894,1.70575 2.74087,3.68492 2.67579,5.9375 l -0.0391,0.11719 -3.67187,0 c -2e-5,-1.66665 -0.55341,-3.0143 -1.66016,-4.04297 -1.09376,-1.02862 -2.66928,-1.54295 -4.72656,-1.54297 -1.91407,2e-5 -3.38543,0.43622 -4.41406,1.30859 -1.01564,0.8594 -1.52345,1.9857 -1.52344,3.37891 -1e-5,1.237 0.55338,2.27215 1.66016,3.10547 1.10676,0.82033 2.90363,1.54298 5.39062,2.16797 2.99478,0.7422 5.27342,1.83595 6.83594,3.28125 1.56248,1.44532 2.34373,3.23568 2.34375,5.37109 -2e-5,2.29167 -0.93752,4.13412 -2.8125,5.52734 -1.87502,1.39323 -4.32293,2.08985 -7.34375,2.08985 -2.83855,0 -5.35157,-0.76823 -7.53906,-2.30469 -2.17449,-1.53645 -3.22917,-3.59374 -3.16407,-6.17187 l 0.0391,-0.11719 3.67187,0 c -10e-6,1.82292 0.67057,3.20964 2.01172,4.16015 1.34114,0.95053 3.00129,1.42579 4.98047,1.42579 1.94009,0 3.47654,-0.41016 4.60937,-1.23047 1.1328,-0.82031 1.6992,-1.93359 1.69922,-3.33985" />
      <path
         inkscape:connector-curvature="0"
         id="path4050"
         d="m 656.4704,425.03311 c -0.66408,1.13282 -1.51694,2.00521 -2.5586,2.61719 -1.04168,0.61198 -2.2461,0.91797 -3.61328,0.91797 -2.30469,0 -4.10157,-0.73568 -5.39062,-2.20703 -1.28907,-1.47135 -1.9336,-3.76302 -1.9336,-6.875 l 0,-12.46094 3.84766,0 0,12.5 c -10e-6,2.25261 0.33202,3.80209 0.99609,4.64844 0.66406,0.84635 1.69921,1.26953 3.10547,1.26953 1.36718,0 2.49348,-0.27344 3.37891,-0.82031 0.89842,-0.5599 1.5755,-1.34766 2.03125,-2.36329 l 0,-15.23437 3.84766,0 0,21.13281 -3.45704,0 -0.2539,-3.125" />
      <path
         inkscape:connector-curvature="0"
         id="path4052"
         d="m 669.2243,407.0253 0.27344,3.14453 c 0.70312,-1.11977 1.58202,-1.98566 2.63672,-2.59766 1.0677,-0.62497 2.27863,-0.93747 3.63281,-0.9375 2.27863,3e-5 4.04295,0.6706 5.29297,2.01172 1.24998,1.32815 1.87498,3.38544 1.875,6.17188 l 0,13.33984 -3.84765,0 0,-13.26172 c -2e-5,-1.86196 -0.37111,-3.18357 -1.11329,-3.96484 -0.72918,-0.78123 -1.84897,-1.17186 -3.35937,-1.17188 -1.10678,2e-5 -2.08985,0.26695 -2.94922,0.80079 -0.84636,0.53387 -1.52344,1.26303 -2.03125,2.1875 l 0,15.41015 -3.84766,0 0,-21.13281 3.4375,0" />
    </g>
  </g>
</svg>
