<?xml version="1.0" encoding="UTF-8" standalone="no"?>
<!-- Created with Inkscape (http://www.inkscape.org/) -->

<svg
   xmlns:dc="http://purl.org/dc/elements/1.1/"
   xmlns:cc="http://creativecommons.org/ns#"
   xmlns:rdf="http://www.w3.org/1999/02/22-rdf-syntax-ns#"
   xmlns:svg="http://www.w3.org/2000/svg"
   xmlns="http://www.w3.org/2000/svg"
   xmlns:sodipodi="http://sodipodi.sourceforge.net/DTD/sodipodi-0.dtd"
   xmlns:inkscape="http://www.inkscape.org/namespaces/inkscape"
   width="223.64986"
   height="370.86618"
   id="svg2"
   version="1.1"
   inkscape:version="0.48.4 r9939"
   sodipodi:docname="bin_empty.svg">
  <defs
     id="defs4" />
  <sodipodi:namedview
     id="base"
     pagecolor="#ffffff"
     bordercolor="#666666"
     borderopacity="1.0"
     inkscape:pageopacity="0.0"
     inkscape:pageshadow="2"
     inkscape:zoom="7.9195959"
     inkscape:cx="121.5912"
     inkscape:cy="41.64134"
     inkscape:document-units="px"
     inkscape:current-layer="layer1"
     showgrid="false"
     showguides="true"
     inkscape:guide-bbox="true"
     inkscape:window-width="1215"
     inkscape:window-height="1000"
     inkscape:window-x="65"
     inkscape:window-y="24"
     inkscape:window-maximized="1"
     fit-margin-top="0"
     fit-margin-left="0"
     fit-margin-right="0"
     fit-margin-bottom="0" />
  <metadata
     id="metadata7">
    <rdf:RDF>
      <cc:Work
         rdf:about="">
        <dc:format>image/svg+xml</dc:format>
        <dc:type
           rdf:resource="http://purl.org/dc/dcmitype/StillImage" />
        <dc:title></dc:title>
      </cc:Work>
    </rdf:RDF>
  </metadata>
  <g
     inkscape:label="Layer 1"
     inkscape:groupmode="layer"
     id="layer1"
     transform="translate(-380.84572,-332.1946)">
    <path
       inkscape:connector-curvature="0"
       id="path3805"
       d="m 408.57723,637.43386 c -5.10139,1.92411 14.40592,48.1177 32.39847,59.45876 5.47923,13.76528 126.54268,-8.66707 115.18257,-14.86957 1.78187,2.86946 0.10358,-1.53273 -0.15192,1.5021 -1.36637,1.17067 0.1244,1.62706 -1.24197,2.79773 -29.3717,4.9543 -61.60053,10.62288 -90.97223,15.57718 -5.02828,2.64384 -14.54062,-1.32587 -20.98215,-3.39285 -12.61123,-13.06666 -26.62726,-33.95891 -33.30356,-48.12501 -4.26617,-92.28356 -1.46126,-4.00236 -0.92921,-12.94834 z"
       style="fill:#ff0000;fill-opacity:1;stroke:none"
       sodipodi:nodetypes="ccccccccc" />
    <path
       style="fill:#000000"
       d="m 446.8643,701.87821 c -5.5719,-1.8031 -13.03745,-9.42021 -23.08793,-23.55662 -12.04545,-16.94242 -15.15386,-24.3673 -16.41136,-39.20081 -0.54324,-6.40808 -0.95482,-7.75 -2.37697,-7.75 -1.46449,0 -1.79863,1.37396 -2.24958,9.25 -0.29129,5.0875 -1.1401,11.05 -1.88626,13.25 -1.3342,3.93383 -1.44513,4.00506 -6.70567,4.30569 -6.23729,0.35646 -7.27673,-0.53737 -9.65885,-8.30569 -4.83762,-15.77598 -4.86133,-47.45891 -0.0385,-51.46149 0.67727,-0.56209 3.38309,-1.13819 6.01294,-1.28024 4.60667,-0.24882 4.85397,-0.12066 6.76213,3.50444 1.08933,2.06949 2.72101,7.58052 3.62597,12.24672 1.50088,7.73903 1.84952,8.48429 3.97043,8.48729 2.30312,0.003 2.31929,-0.0793 1.71262,-8.74672 -0.94883,-13.55572 -6.37293,-116.99083 -6.98758,-133.25 -1.19075,-31.49875 -1.526,-42.56318 -2.10579,-69.5 -0.66868,-31.06647 -1.62013,-37.28534 -6.25993,-40.91602 -5.74126,-4.49258 -6.18439,-5.322 -6.18439,-11.57551 0,-5.03232 0.33794,-6.193 2.1109,-7.25 1.16099,-0.69216 2.96332,-3.21371 4.00517,-5.60344 1.04185,-2.38974 2.72296,-4.56168 3.7358,-4.82654 1.30533,-0.34136 1.71253,-1.15633 1.39852,-2.79901 l -0.44301,-2.31743 20.35282,-0.0751 c 11.19405,-0.0413 23.72489,-0.58167 27.84631,-1.20081 4.36958,-0.65642 20.76346,-1.12008 39.32491,-1.11222 28.31203,0.012 32.03533,0.19801 33.67568,1.68251 1.01434,0.91796 4.6902,2.04568 8.16858,2.50603 5.18741,0.68654 28.9875,8.81739 30.63649,10.46638 0.25414,0.25414 1.70734,-0.42463 3.22932,-1.50838 2.82749,-2.01336 5.71117,-2.41142 9.70851,-1.34017 1.84063,0.49327 2.25,1.30532 2.25,4.46329 0,4.40249 2.10915,6.29075 9.92723,8.88756 3.98836,1.32475 4.75786,2.05426 6.02102,5.70815 1.35775,3.92751 1.95137,4.40222 9.5,7.59698 l 8.05175,3.40771 -0.0545,10.1242 c -0.03,5.56832 -0.36801,10.43769 -0.75116,10.82084 -0.38314,0.38314 -3.20778,0.90487 -6.27696,1.15939 -3.449,0.28602 -5.78105,0.9858 -6.10584,1.83218 -0.28905,0.75317 -1.09217,1.36941 -1.78475,1.36941 -1.6949,0 -8.52679,8.87821 -8.52679,11.08078 0,0.9639 -0.36471,1.90255 -0.81047,2.08589 -0.75117,0.30894 -2.13525,16.70329 -8.68167,102.83333 -1.35861,17.875 -4.05245,52.75 -5.9863,77.5 -6.9695,89.1975 -7.16562,90.96291 -10.43338,93.9202 -1.18372,1.07125 -8.56922,2.83111 -21.20232,5.05221 -10.66222,1.87458 -28.38586,5.02869 -39.38586,7.00913 -23.60166,4.24924 -40.52809,5.32454 -47.63126,3.02589 z m 22.13126,-1.53317 c 9.54565,-0.99584 82.79355,-13.74217 84.31168,-14.67161 2.11879,-1.29717 3.10694,-8.73933 6.28072,-47.30265 3.59165,-43.64056 16.8234,-215.79948 17.82289,-231.89429 l 0.58338,-9.39429 -7.64968,0.57855 c -4.20733,0.3182 -7.97815,1.10999 -8.37959,1.75954 -0.40145,0.64955 -1.49652,4.72914 -2.4335,9.06575 -0.93698,4.33661 -2.02946,7.88474 -2.42773,7.88474 -0.39827,0 -0.53049,-4.05 -0.29383,-9 l 0.4303,-9 -10.87232,0.006 c -5.97978,0.003 -14.54921,0.29225 -19.04319,0.64212 l -8.17088,0.63612 -1.76252,9.35789 c -0.96938,5.14682 -2.19786,9.35787 -2.72995,9.35787 -0.59877,0 -0.7309,-3.60073 -0.34674,-9.44914 l 0.6207,-9.44914 -19.21987,0.58655 c -10.57093,0.3226 -19.32444,0.66678 -19.45225,0.76484 -0.1278,0.0981 -1.12004,4.59098 -2.20497,9.98424 -1.08493,5.39326 -2.21786,10.05119 -2.51762,10.35096 -0.29977,0.29976 -0.54503,-4.02998 -0.54503,-9.62164 l 0,-10.16667 -15.5,0 -15.5,0 0,4.36043 c 0,11.52366 -2.66435,17.75753 -4.08485,9.55744 -0.32564,-1.87983 -1.69845,-5.99676 -3.05068,-9.14874 -1.89226,-4.41074 -3.59955,-6.54323 -7.41154,-9.25743 l -4.95293,-3.52655 -0.5,9.25743 c -0.28026,5.18898 -0.81582,8.48833 -1.21862,7.50742 -0.39523,-0.9625 -1.63273,-1.75 -2.75,-1.75 -1.91053,0 -2.03138,-0.61356 -2.03138,-10.31291 0,-10.15341 -0.0464,-10.35736 -3,-13.18709 l -3,-2.87418 -0.0789,10.43709 c -0.0434,5.7404 -0.30592,9.87459 -0.58333,9.18709 -0.27741,-0.6875 -1.59189,-1.25 -2.92105,-1.25 -2.39928,0 -2.41667,-0.0742 -2.41667,-10.30887 0,-7.51611 -0.39775,-10.83474 -1.4682,-12.25 -1.32448,-1.75112 -1.47131,-1.00546 -1.5,7.6176 -0.0455,13.68648 2.73153,98.85791 3.97597,121.94127 0.57819,10.725 1.91663,35.475 2.97431,55 1.05767,19.525 2.43865,46.3 3.06883,59.5 1.37902,28.88548 2.49763,33.73968 10.68081,46.34962 13.42294,20.68418 22.479,30.58995 28.95861,31.67577 2.09532,0.35112 4.25967,0.79102 4.80967,0.97756 1.81099,0.61421 5.87272,0.47567 15.5,-0.52869 z m -80.43879,-57.22426 c 1.91753,-8.65405 -0.16893,-30.34962 -3.15724,-32.8297 -3.0035,-2.49268 -4.42328,13.20446 -2.35003,25.98211 1.62849,10.03659 4.11549,13.12886 5.50727,6.84759 z m -2.90133,-10.4913 c -1.99129,-3.22199 -1.18994,-12.12209 0.90302,-10.02914 1.20442,1.20443 1.71107,9.48308 0.62156,10.15644 -0.57544,0.35564 -1.2615,0.29836 -1.52458,-0.1273 z m 0.59337,-7.40545 c -0.55478,-0.55478 -0.70153,0.37811 -0.37209,2.36533 0.46036,2.77692 0.60121,2.91777 0.91609,0.91608 0.20464,-1.30093 -0.0402,-2.77757 -0.544,-3.28141 z m 20.74675,0.64675 c 0,-2.83333 -0.38095,-3.5 -2,-3.5 -1.61905,0 -2,0.66667 -2,3.5 0,2.83333 0.38095,3.5 2,3.5 1.61905,0 2,-0.66667 2,-3.5 z m 103,-228.51793 c 48.49335,-1.76231 78.32464,-3.0428 85.15787,-3.65533 l 6.65788,-0.59681 0.70129,-7.92246 c 0.38572,-4.35736 0.52511,-8.09866 0.30976,-8.31401 -0.75055,-0.75055 -132.4625,3.52935 -150.3268,4.88478 -15.09166,1.14506 -18.53448,1.14838 -21.30793,0.0206 -3.18605,-1.29559 -12.16594,-6.5972 -33.94207,-20.03892 l -10.25,-6.32701 0.0153,3.23356 c 0.008,1.77847 0.34592,3.68978 0.75,4.24736 0.40408,0.55759 6.33212,5.48957 13.17343,10.95997 6.8413,5.4704 15.37401,12.55177 18.96158,15.73639 11.49786,10.20644 10.82354,10.04291 38.59968,9.36074 13.2,-0.32419 36.375,-1.03916 51.5,-1.58882 z m -72.91667,-7.34884 c 0.22917,-0.20172 11.44167,-0.66401 24.91667,-1.02731 13.475,-0.3633 35.75,-1.0889 49.5,-1.61243 13.75,-0.52354 38.05,-1.42556 54,-2.00449 15.95,-0.57894 30.575,-1.31788 32.5,-1.6421 2.71709,-0.45762 3.2449,-0.31843 2.35957,0.62223 -0.78824,0.83752 -8.97191,1.4894 -26.5,2.1109 -13.94776,0.49455 -43.03136,1.57885 -64.6302,2.40957 -36.61022,1.40808 -73.10364,1.98656 -72.14604,1.14363 z m 16.73696,-9.63323 c 7.16691,0 1.83232,-1.36464 -8.10814,-2.07414 -9.12019,-0.65095 -11.49883,-1.25403 -21.06963,-5.34197 -14.09908,-6.02208 -15.64522,-6.82975 -25.39252,-13.26455 -4.5375,-2.99548 -8.25,-6.09276 -8.25,-6.88284 0,-1.55669 -2.54524,-1.98133 -3.4174,-0.57015 -0.87858,1.42157 1.93424,3.37983 23.9174,16.65109 l 21,12.67772 8.90362,-0.59758 c 4.897,-0.32867 10.4845,-0.59758 12.41667,-0.59758 z m 70.17971,-4.52614 c 43.19336,-1.41085 52.89839,-1.92118 59.25,-3.11562 2.23721,-0.42072 2.75,-1.0496 2.75,-3.3726 0,-3.44941 -1.69381,-8.17837 -3.28057,-9.15904 -0.63549,-0.39276 -4.09484,-1.02393 -7.68744,-1.40261 -9.96873,-1.05076 -11.03199,-1.66273 -11.03199,-6.34955 0,-2.61843 0.55084,-4.28332 1.61401,-4.8783 1.38437,-0.77474 1.294,-0.98693 -0.63519,-1.49143 -2.73706,-0.71575 -7.97882,4.02642 -7.97882,7.21837 0,2.36437 -3.01532,2.78199 -7.57359,1.04894 -3.92231,-1.49126 -2.27939,-2.30155 2.17359,-1.07202 4.36064,1.20403 4.09982,1.30368 4.55222,-1.73929 0.31993,-2.15195 -0.67717,-2.72484 -12.45097,-7.15383 -15.86585,-5.96829 -19.84152,-7.02074 -14.29832,-3.78508 8.85487,5.16873 4.223,5.9185 -34.39701,5.56788 -25.75318,-0.2338 -32.15902,-0.5592 -33.2072,-1.68686 -1.09321,-1.17609 -0.98224,-1.25521 0.70128,-0.5 2.19813,0.98606 46.67576,1.2967 61,0.42603 l 9,-0.54704 -5.5,-2.69266 c -12.67565,-6.20569 -16.56867,-6.79654 -44.2091,-6.70963 -13.90999,0.0437 -29.04965,0.39168 -33.64368,0.77322 -7.67425,0.63735 -8.57801,0.94578 -11.12546,3.79688 -1.52498,1.70675 -3.01947,3.7213 -3.32109,4.47678 -0.37938,0.95023 -0.80304,1.03948 -1.37454,0.28958 -0.46511,-0.61031 -8.31946,-1.6253 -17.97337,-2.32265 -19.39072,-1.40069 -20.6918,-1.11527 -22.36761,4.90667 -0.5357,1.925 -0.9741,4.175 -0.97422,5 -5e-4,3.38112 19.99136,15.1618 37.41141,22.04558 6.9645,2.75211 9.71892,3.25652 21.04546,3.85397 7.16771,0.37808 16.4072,0.54636 20.5322,0.37396 4.125,-0.1724 27.975,-0.98224 53,-1.79965 z m -90.56824,-10.40263 c 1.72867,-1.80435 4.66092,-3.37377 7.63756,-4.08786 4.82374,-1.1572 7.86253,-3.38486 6.48985,-4.75754 -0.39921,-0.3992 -4.62584,-0.72583 -9.3925,-0.72583 -8.91619,0 -10.54006,-0.65477 -9.54512,-3.84872 0.48438,-1.55496 0.20268,-1.73385 -1.77283,-1.12577 -1.2918,0.39762 -2.41537,0.77954 -2.49684,0.84872 -0.23656,0.20087 -0.63394,8.96554 -0.48618,10.72296 0.0739,0.87845 1.1468,2.08549 2.3843,2.68232 1.378,0.66458 1.66866,1.10543 0.75,1.1375 -3.10172,0.10828 -4.46187,-1.81857 -4.67213,-6.61878 -0.27638,-6.30985 1.34443,-11.24035 4.02258,-12.23666 2.61504,-0.97282 12.46676,-0.3312 19.75084,1.28634 3.97598,0.88293 5.66726,1.80921 6.55515,3.59015 0.65815,1.32012 1.95868,2.82668 2.89007,3.34791 1.3855,0.77536 1.44432,1.10551 0.32347,1.81555 -2.19459,1.39023 -2.67075,1.08205 -3.39035,-2.19426 -0.49304,-2.24478 -1.58501,-3.47117 -3.98276,-4.47301 -3.94283,-1.64742 -21.97716,-3.09176 -22.74651,-1.82173 -0.29569,0.48811 3.3757,0.93286 8.15864,0.98831 10.72066,0.12431 14.4656,1.63096 14.89206,5.9913 0.35876,3.66802 -0.66987,4.61132 -7.43345,6.81686 -2.82282,0.92049 -5.93006,2.55503 -6.90499,3.63231 -0.97493,1.07729 -2.23704,1.9587 -2.8047,1.9587 -0.56766,0 0.23057,-1.31795 1.77384,-2.92877 z m 8.45937,-11.4603 c 6.3642,0.77297 6.45959,-1.08994 0.10363,-2.02392 -2.19712,-0.32285 -5.79476,-0.85156 -7.99476,-1.17491 -3.76331,-0.55311 -4,-0.43889 -4,1.9302 0,2.36956 0.1917,2.46193 3.25,1.56597 1.7875,-0.52366 5.67601,-0.65747 8.64113,-0.29734 z m 21.16709,0.3559 c -2.44298,-0.51041 -4.80797,-1.04925 -5.25553,-1.19742 -0.44756,-0.14818 15.39976,-0.12199 35.21628,0.0582 23.62941,0.21485 37.7927,-0.0504 41.15146,-0.77074 5.82842,-1.24998 7.51072,-0.68908 3.21826,1.07299 -3.60831,1.48122 -67.78799,2.20389 -74.33047,0.83697 z m 137.71195,20.54122 c 0.14859,-0.11828 -2.10141,-1.13726 -5,-2.2644 -2.89859,-1.12715 -6.13579,-2.3962 -7.19378,-2.82011 -1.53166,-0.61371 -1.79394,-0.43286 -1.28724,0.8876 0.92058,2.39899 -2.08539,3.65322 -11.06629,4.61738 -5.52725,0.59338 -3.17405,0.68204 8.27714,0.31183 8.8,-0.28449 16.12158,-0.61403 16.27017,-0.7323 z m -29.44562,-19.39124 c -1.23731,-1.03324 -2.31541,-3.25693 -2.5,-5.1565 -0.31325,-3.22353 -0.38738,-3.27662 -2.12884,-1.52436 -2.81838,2.83587 -1.86184,6.91324 1.80429,7.69099 4.81054,1.02053 5.12262,0.90892 2.82455,-1.01013 z m -135.35933,-16.57979 2.12367,-2.26054 -19.5423,0.11176 c -10.74826,0.0615 -19.54326,0.39855 -19.54444,0.74907 -0.002,0.6556 15.98992,2.74947 23.99785,3.14207 2.475,0.12134 5.92685,0.28757 7.67078,0.3694 2.13572,0.10021 3.86402,-0.58915 5.29444,-2.11176 z"
       id="path3066"
       inkscape:connector-curvature="0"
       sodipodi:nodetypes="cssssssssssscssssssssscsssssssssssscssscsscssssscccssscsssssccscssscscscscccsssscssssscssssssssssssccsssscssccsscssssscscsssssccsssscccssssssscssssssscsssssssssssssssssssscsssssssssssssssssssscsssssssssssssssssssssssscsssscssssscsssssscscsss" />
  </g>
</svg>
